HIERARCHY
ROOT Pelvis
{
	OFFSET 0.00000 0.00000 0.00000
	CHANNELS 6 Xposition Yposition Zposition Zrotation Yrotation Xrotation 
	JOINT LHipJoint
	{
		OFFSET 0 0 0
		CHANNELS 3 Zrotation Yrotation Xrotation
		JOINT LeftUpLeg
		{
			OFFSET 1.57314 -1.85774 0.63783
			CHANNELS 3 Zrotation Yrotation Xrotation
			JOINT LeftLeg
			{
				OFFSET 2.57982 -7.08799 0.00000
				CHANNELS 3 Zrotation Yrotation Xrotation
				JOINT LeftFoot
				{
					OFFSET 2.63993 -7.25315 0.00000
					CHANNELS 3 Zrotation Yrotation Xrotation
					JOINT LeftToeBase
					{
						OFFSET 0.16864 -0.46332 2.12791
						CHANNELS 3 Zrotation Yrotation Xrotation
						End Site
						{
							OFFSET 0.00000 -0.00000 1.09718
						}
					}
				}
			}
		}
	}
	JOINT RHipJoint
	{
		OFFSET 0 0 0
		CHANNELS 3 Zrotation Yrotation Xrotation
		JOINT RightUpLeg
		{
			OFFSET -1.56006 -1.85774 0.63784
			CHANNELS 3 Zrotation Yrotation Xrotation
			JOINT RightLeg
			{
				OFFSET -2.54246 -6.98536 0.00000
				CHANNELS 3 Zrotation Yrotation Xrotation
				JOINT RightFoot
				{
					OFFSET -2.65791 -7.30256 0.00000
					CHANNELS 3 Zrotation Yrotation Xrotation
					JOINT RightToeBase
					{
						OFFSET -0.18435 -0.50650 2.16316
						CHANNELS 3 Zrotation Yrotation Xrotation
						End Site
						{
							OFFSET -0.00000 -0.00000 1.11780
						}
					}
				}
			}
		}
	}
	JOINT LowerBack
	{
		OFFSET 0 0 0
		CHANNELS 3 Zrotation Yrotation Xrotation
		JOINT Spine
		{
			OFFSET -0.00136 1.92812 -0.29638
			CHANNELS 3 Zrotation Yrotation Xrotation
			JOINT Spine1
			{
				OFFSET -0.00528 1.96223 -0.02928
				CHANNELS 3 Zrotation Yrotation Xrotation
				JOINT Neck
				{
					OFFSET 0 0 0
					CHANNELS 3 Zrotation Yrotation Xrotation
					JOINT Neck1
					{
						OFFSET -0.01015 1.75586 0.07797
						CHANNELS 3 Zrotation Yrotation Xrotation
						JOINT Head
						{
							OFFSET 0.05540 1.72452 0.04558
							CHANNELS 3 Zrotation Yrotation Xrotation
							End Site
							{
								OFFSET 0.02170 1.79958 0.00864
							}
						}
					}
				}
				JOINT LeftShoulder
				{
					OFFSET 0 0 0
					CHANNELS 3 Zrotation Yrotation Xrotation
					JOINT LeftArm
					{
						OFFSET 3.16292 1.29277 -0.65728
						CHANNELS 3 Zrotation Yrotation Xrotation
						JOINT LeftForeArm
						{
							OFFSET 5.52302 -0.00000 -0.00000
							CHANNELS 3 Zrotation Yrotation Xrotation
							JOINT LeftHand
							{
								OFFSET 3.58675 -0.00000 -0.00000
								CHANNELS 3 Zrotation Yrotation Xrotation
								JOINT LeftFingerBase
								{
									OFFSET 0 0 0
									CHANNELS 3 Zrotation Yrotation Xrotation
									JOINT LeftHandIndex1
									{
										OFFSET 0.53641 -0.00000 -0.00000
										CHANNELS 3 Zrotation Yrotation Xrotation
										End Site
										{
											OFFSET 0.43247 -0.00000 -0.00000
										}
									}
								}
								JOINT LThumb
								{
									OFFSET 0 0 0
									CHANNELS 3 Zrotation Yrotation Xrotation
									End Site
									{
										OFFSET 0.43907 -0.00000 0.43907
									}
								}
							}
						}
					}
				}
				JOINT RightShoulder
				{
					OFFSET 0 0 0
					CHANNELS 3 Zrotation Yrotation Xrotation
					JOINT RightArm
					{
						OFFSET -3.08296 1.43376 -0.52927
						CHANNELS 3 Zrotation Yrotation Xrotation
						JOINT RightForeArm
						{
							OFFSET -5.84780 -0.00000 0.00000
							CHANNELS 3 Zrotation Yrotation Xrotation
							JOINT RightHand
							{
								OFFSET -3.62717 -0.00000 -0.00000
								CHANNELS 3 Zrotation Yrotation Xrotation
								JOINT RightFingerBase
								{
									OFFSET 0 0 0
									CHANNELS 3 Zrotation Yrotation Xrotation
									JOINT RightHandIndex1
									{
										OFFSET -0.65052 -0.00000 -0.00000
										CHANNELS 3 Zrotation Yrotation Xrotation
										End Site
										{
											OFFSET -0.52446 -0.00000 -0.00000
										}
									}
								}
								JOINT RThumb
								{
									OFFSET 0 0 0
									CHANNELS 3 Zrotation Yrotation Xrotation
									End Site
									{
										OFFSET -0.53247 -0.00000 0.53247
									}
								}
							}
						}
					}
				}
			}
		}
	}
}
MOTION
Frames: 12
Frame Time: .0083333
-0.3228	18.5199	-14.9781	2.5405	1.0729	6.3268	0	0	0	-24.1185	6.6432	26.8875	0	0	0	4.1377	19.3993	37.4613	0.0023	-0.3115	-0.856	0	0	0	11.5464	14.6255	-43.5193	-9.5064	-17.1228	57.8254	-0.0132	-3.298	2.9242	-0.0437	1.3497	-3.7115	-4.8282	-4.2662	13.4012	0.7176	-6.3566	0.0324	4.6539	-2.9243	-6.8539	-0.3182	3.407	-4.1924	-2.0634	4.4268	-8.5763	-0.6095	2.2516	-1.9265	0	0	0	-75.63	-10.4406	46.9915	138.587	-48.8851	-100.5028	0	0	-26.1214	37.7347	3.9663	3.064	-7.125	0	0	9.1918	34.8716	-2.3107	0	0	0	79.2291	-32.9628	30.8669	-63.7573	57.2308	-37.4844	0	0	2.2756	-46.5367	24.3312	-23.4959	7.125	0	0	-10.0851	2.8829	-10.7441
-0.3075	18.5829	-14.4079	2.8374	0.8265	6.5173	0	0	0	-24.5622	6.4921	28.0746	0	0	0	4.026	19.0308	36.9128	0.04	-1.291	-3.5498	0	0	0	11.2236	15.0734	-42.7265	-7.9798	-16.1044	52.4901	-0.0102	-3.2767	2.7836	-0.0353	1.2119	-3.3322	-4.7808	-4.2936	13.2828	0.6642	-6.3936	-0.2301	4.5826	-2.931	-7.0772	-0.064	3.3891	-4.0894	-2.1509	4.3939	-8.3858	-0.6776	2.2285	-1.8752	0	0	0	-75.255	-9.6479	47.5414	138.8464	-48.7387	-100.698	0	0	-25.4506	37.5151	4.3554	3.3368	-7.125	0	0	9.0456	35.345	-2.1678	0	0	0	79.2727	-33.8311	30.4838	-64.3673	57.3656	-37.9978	0	0	2.5287	-46.6639	24.6246	-23.8264	7.125	0	0	-10.0813	3.2972	-10.8092
-0.2969	18.6362	-13.8473	3.3973	0.8324	6.6274	0	0	0	-25.287	6.148	29.4545	0	0	0	3.4905	17.9918	34.2993	0.5369	-4.6951	-13.041	0	0	0	10.6207	15.3542	-41.6821	-6.5796	-14.9674	47.2658	-0.0039	-3.5447	2.6602	-0.036	1.2243	-3.3663	-5.0311	-4.3864	13.1326	0.5682	-6.5599	-0.3543	4.6398	-3.0022	-7.093	0.0095	3.3983	-3.9862	-2.1224	4.4057	-8.3822	-0.6832	2.232	-1.8906	0	0	0	-74.9982	-8.7617	47.8527	139.0963	-48.5963	-100.8857	0	0	-24.4513	37.0024	4.6093	3.4657	-7.125	0	0	8.6393	35.6331	-2.0072	0	0	0	79.3786	-34.4347	30.0664	-65.2707	57.5582	-38.7594	0	0	2.8366	-47.1199	24.3481	-23.9399	7.125	0	0	-10.4097	3.1554	-11.1485
-0.2937	18.6772	-13.2961	3.9379	0.7206	6.6876	0	0	0	-26.6309	5.2724	28.469	0.0678	1.6794	4.6204	2.4326	15.4039	28.5109	1.1545	-6.822	-19.1891	0	0	0	10.0287	15.9174	-40.4486	-5.3292	-13.7452	42.2262	0.0143	-4.4512	2.5445	-0.0271	1.0619	-2.9192	-5.3105	-4.3901	12.7498	0.3809	-6.5892	-0.1023	4.5452	-3.0375	-6.596	0.1365	3.3939	-4.2454	-2.0113	4.4003	-8.6308	-0.6681	2.2232	-1.9264	0	0	0	-74.6128	-8.5076	47.9639	139.0757	-48.6081	-100.8702	0	0	-23.216	36.336	5.3688	3.937	-7.125	0	0	8.1368	36.5287	-1.7091	0	0	0	79.8569	-34.2471	29.4396	-66.0417	57.716	-39.4106	0	0	3.1301	-47.4261	23.9793	-23.8631	7.125	0	0	-10.6778	2.8335	-11.3883
-0.2836	18.7025	-12.7427	4.7002	0.5955	6.6713	0	0	0	-28.2319	4.3993	27.504	0.274	3.3672	9.3029	1.42	13.0261	21.8717	4.4385	-12.7222	-38.3371	0	0	0	9.2441	16.351	-39.1174	-4.2548	-12.492	37.4955	0.0476	-5.8271	2.5178	-0.0381	1.2604	-3.4657	-5.8041	-4.3553	12.3484	0.1815	-6.5892	0.2277	4.5453	-3.0595	-5.9879	0.1591	3.3644	-4.6107	-1.979	4.358	-8.9142	-0.6585	2.2	-1.9564	0	0	0	-74.4565	-8.1959	48.2777	139.0368	-48.6303	-100.8411	0	0	-22.0792	36.131	5.9424	4.3222	-7.125	0	0	8.0018	37.2168	-1.5445	0	0	0	80.2345	-33.8018	28.7052	-66.5634	57.8193	-39.8519	0	0	3.2246	-48.0742	23.6701	-24.0866	7.125	0	0	-11.1235	2.7352	-11.8632
-0.2755	18.7129	-12.1864	5.4153	0.4769	6.599	0	0	0	-29.6508	3.5846	26.826	0.5861	4.9017	13.6285	2.2967	14.3857	27.5952	0.5386	-4.7025	-13.0619	0	0	0	8.5046	16.9391	-37.6603	-3.3847	-11.2931	33.275	0.122	-7.5749	1.9011	-0.079	1.8131	-4.9894	-6.3169	-4.2822	11.7786	0.0348	-6.5145	0.6381	4.5804	-3.0562	-5.203	0.1604	3.2628	-4.8449	-2.042	4.21	-9.436	-0.6821	2.1278	-2.0868	0	0	0	-74.4892	-7.9143	48.6866	138.828	-48.7491	-100.6842	0	0	-21.3732	36.2051	5.1895	3.7881	-7.125	0	0	8.0133	36.3013	-1.7276	0	0	0	80.6369	-33.2826	27.9212	-67.2833	57.9574	-40.4616	0	0	3.2741	-49.3653	20.6207	-22.3129	7.125	0	0	-12.6427	-0.5918	-12.8288
-0.2748	18.6992	-11.6375	5.8759	0.2392	6.5564	0	0	0	-30.7335	2.8822	26.16	1.0218	6.4307	18.0392	2.119	13.7004	26.4613	0.5176	-4.6111	-12.8025	0	0	0	7.9432	18.0025	-36.239	-2.7173	-10.2227	29.7011	0.2438	-9.3639	0.2253	-0.105	2.0892	-5.7521	-6.2868	-4.2365	12.7898	-0.1957	-6.5707	-0.0529	4.4734	-3.0082	-6.5305	0.2839	3.203	-4.51	-2.0003	4.1328	-9.1581	-0.6916	2.0848	-2.0527	0	0	0	-74.4648	-5.7698	49.1928	138.7394	-48.7993	-100.6175	0	0	-21.2523	36.21	4.2514	3.1068	-7.125	0	0	7.9489	35.1534	-1.9378	0	0	0	80.9128	-34.1504	27.7457	-67.8385	58.0604	-40.9326	0	0	3.432	-52.2044	12.4998	-15.5929	7.125	0	0	-16.3687	-10.6952	-13.6296
-0.2657	18.6752	-11.0944	6.5985	0.2035	6.4912	0	0	0	-32.1144	1.8709	25.286	1.6322	8.0538	22.8776	2.2193	13.4913	27.0282	0.073	-1.7435	-4.7972	0	0	0	7.2677	18.4421	-34.9161	-2.2072	-9.285	26.6911	0.3485	-10.6145	-1.622	-0.1094	2.1327	-5.8726	-6.7968	-4.2088	13.0908	-0.2582	-6.643	-0.1559	4.7354	-3.0132	-6.7536	0.0798	3.1307	-4.343	-2.0707	4.0308	-9.4703	-0.6881	2.0435	-2.188	0	0	0	-74.9567	-4.5049	49.4549	138.2807	-49.0562	-100.2717	0	0	-21.7909	36.1472	4.1079	2.9954	-7.125	0	0	7.8858	34.9747	-1.9568	0	0	0	80.8236	-33.8614	27.5359	-67.9204	58.0753	-41.0021	0	0	3.3665	-48.9669	22.6224	-23.8445	7.125	0	0	-11.9005	1.814	-12.5416
-0.2515	18.6538	-10.5451	7.2047	0.2723	6.3565	0	0	0	-32.9073	1.6312	23.7129	2.4417	9.7311	28.1102	2.2307	12.0741	26.9503	0.6899	-5.3099	-14.7947	0	0	0	7.0073	18.2672	-33.6029	-1.8269	-8.4958	24.2304	0.4143	-11.4623	-2.3006	-0.1903	2.8092	-7.7481	-7.1414	-4.2948	12.5045	-0.3534	-6.7365	0.3809	4.7453	-3.1109	-5.8108	-0.1087	3.1418	-4.5522	-2.168	4.0309	-10.2071	-0.6956	2.0538	-2.3973	0	0	0	-75.3607	-3.9314	49.4235	137.5518	-49.4553	-99.7195	0	0	-22.1959	36.3298	4.4799	3.2874	-7.125	0	0	8.0661	35.4392	-1.9102	0	0	0	80.7459	-32.5122	27.5379	-67.7005	58.0351	-40.8155	0	0	3.094	-48.8675	22.518	-23.6779	7.125	0	0	-11.8713	1.6361	-12.4733
-0.2509	18.627	-9.9982	6.5159	-0.1847	6.3196	0	0	0	-32.3199	1.7231	21.7489	3.4164	11.3404	33.4368	2.6224	11.4655	29.19	0.2461	-3.1921	-8.8141	0	0	0	8.269	18.8856	-32.2931	-1.5422	-7.8391	22.2263	0.5217	-12.7792	-2.9812	-0.2546	3.2463	-8.9654	-6.5443	-4.1834	12.5678	0.0056	-6.4899	0.3024	4.7705	-2.9928	-5.9828	-0.4915	3.1595	-4.3221	-2.1158	4.061	-10.4267	-0.6239	2.0834	-2.5199	0	0	0	-76.0423	-2.3334	49.6418	136.6797	-49.9186	-99.0545	0	0	-22.3445	36.8126	4.8506	3.6212	-7.125	0	0	8.4998	35.9205	-1.9141	0	0	0	80.3006	-31.987	27.8223	-67.6902	58.0332	-40.8067	0	0	2.7979	-48.3219	22.8966	-23.6062	7.125	0	0	-11.4644	1.8731	-12.0742
-0.2469	18.5763	-9.4616	5.6972	-0.8447	6.243	0	0	0	-31.5904	2.0185	19.6435	4.5753	12.889	38.9544	2.7991	10.8271	30.1615	0.1886	-2.7973	-7.7148	0	0	0	9.9818	18.9767	-31.0739	-1.3275	-7.2964	20.5964	0.6008	-13.7438	-2.8203	-0.2855	3.4366	-9.4967	-5.809	-3.9878	12.1654	0.2906	-6.0674	0.6315	4.5451	-2.8325	-5.5017	-0.8319	3.1203	-4.4856	-1.8811	4.0288	-10.7622	-0.4947	2.0752	-2.6163	0	0	0	-76.551	-1.5145	49.5078	135.3499	-50.5959	-98.0319	0	0	-22.7097	37.2656	4.9803	3.779	-7.125	0	0	8.8918	36.1063	-1.9633	0	0	0	80.2225	-30.7181	27.884	-67.7355	58.0415	-40.8452	0	0	2.5097	-47.5373	23.9114	-23.8891	7.125	0	0	-10.7582	2.7979	-11.4707
-0.2315	18.5302	-8.9155	5.3711	-1.1824	5.9289	0	0	0	-31.37	2.1932	17.9671	5.8966	14.3274	44.5654	2.9452	10.7197	30.9621	0.1036	-2.0755	-5.7143	0	0	0	11.5984	17.7216	-29.5786	-1.1487	-6.8053	19.1398	0.5676	-13.6265	-1.4506	-0.2808	3.4081	-9.417	-5.2249	-3.9323	12.256	0.3582	-5.9087	0.7981	4.2692	-2.7738	-5.4444	-1.1445	3.0791	-4.5723	-1.6252	3.9995	-10.8348	-0.3606	2.0658	-2.6381	0	0	0	-77.1052	-0.102	49.2352	133.9754	-51.2607	-96.9648	0	0	-23.0968	37.5163	5.0074	3.8339	-7.125	0	0	9.1057	36.1547	-2.0007	0	0	0	79.9212	-29.7402	28.3536	-68.092	58.1064	-41.1477	0	0	1.9698	-46.4945	25.0474	-24.0393	7.125	0	0	-9.8764	3.7405	-10.655
